<svg width="125" height="60" viewBox="0 0 125 60" fill="none" xmlns="http://www.w3.org/2000/svg">
<path fill-rule="evenodd" clip-rule="evenodd" d="M20.996 27.8974C22.5848 30.1582 23.3808 32.8988 23.0574 35.9937C22.6462 39.93 18.3606 42.8237 18.3606 42.8237C18.2094 42.9248 18.011 42.9212 17.8636 42.8143C17.8636 42.8143 16.293 41.6769 14.9758 39.9989C14.0722 38.8481 13.296 37.4453 13.1793 35.983C12.9323 32.8869 13.6997 30.1545 15.2599 27.9001C15.3412 27.7828 15.4747 27.7126 15.6174 27.7126H20.6402C20.7818 27.7126 20.9146 27.7817 20.996 27.8974ZM20.4117 28.5821H15.848C14.4828 30.6425 13.8231 33.1197 14.0461 35.914C14.1495 37.2094 14.8591 38.4424 15.6597 39.462C16.5917 40.6492 17.6581 41.5494 18.1288 41.9221C19.0036 41.2758 21.8755 38.9389 22.1926 35.9033C22.4836 33.1181 21.7994 30.6419 20.4117 28.5821Z" fill="#5A2D00"/>
<path fill-rule="evenodd" clip-rule="evenodd" d="M18.1289 20.7053C20.7633 20.6997 21.6407 22.3544 21.6407 24.3855C21.6407 26.4168 20.0671 28.0659 18.1289 28.0659C16.1908 28.0659 14.6172 26.4168 14.6172 24.3855C14.6172 22.3544 15.5516 20.7108 18.1289 20.7053Z" fill="#5A2D00"/>
<path fill-rule="evenodd" clip-rule="evenodd" d="M8.01854 31.9139C5.54759 31.607 3.34593 29.5788 3.43732 27.3779C3.52389 25.2936 5.92817 23.6122 8.1489 23.3338C12.2618 22.8182 15.5812 24.8884 18.0421 27.7702L18.0502 27.7703C18.0488 27.772 18.0474 27.7735 18.0461 27.7752C18.0474 27.7769 18.0486 27.7786 18.05 27.7802L18.042 27.7801C15.5488 30.4988 12.1321 32.425 8.01854 31.9139Z" fill="#FFC440"/>
<path fill-rule="evenodd" clip-rule="evenodd" d="M18.329 27.4367C18.3776 27.4772 18.4174 27.5286 18.445 27.5883C18.4735 27.65 18.4867 27.7164 18.4848 27.7819C18.4845 27.8474 18.4694 27.9133 18.4392 27.9743C18.4095 28.0337 18.3674 28.0842 18.3169 28.1234C15.7362 30.9155 12.2045 32.8722 7.96496 32.3453C5.26911 32.0103 2.90334 29.7612 3.00304 27.3599C3.04196 26.4226 3.48766 25.5531 4.18037 24.8329C5.17048 23.8033 6.6676 23.0813 8.09491 22.9024C12.3398 22.3702 15.7791 24.4722 18.329 27.4367ZM17.4603 27.7645C15.1207 25.1426 12.0214 23.2864 8.20305 23.7652C6.96547 23.9204 5.66562 24.5428 4.80713 25.4356C4.26736 25.9967 3.90211 26.6657 3.87181 27.396C3.78868 29.3966 5.82611 31.2034 8.07221 31.4825C11.8927 31.9572 15.0839 30.2359 17.4603 27.7645Z" fill="#5A2D00"/>
<path fill-rule="evenodd" clip-rule="evenodd" d="M12.3462 34.261C10.4797 34.9087 8.2015 34.2369 7.49488 32.6382C6.82582 31.1243 7.94772 29.0844 9.43088 28.1077C12.1778 26.2986 15.2665 26.6085 18.0285 27.7971L18.0344 27.7944C18.034 27.796 18.0336 27.7976 18.0331 27.7992C18.0347 27.8 18.0361 27.8007 18.0377 27.8015L18.032 27.8042C17.2103 30.6136 15.4536 33.1827 12.3462 34.261Z" fill="#FFC440"/>
<path fill-rule="evenodd" clip-rule="evenodd" d="M18.1455 27.3738C18.2042 27.3892 18.26 27.417 18.3088 27.4566C18.3615 27.4993 18.4024 27.5525 18.4298 27.6119C18.4582 27.6706 18.4736 27.736 18.4732 27.8037C18.473 27.8674 18.4588 27.9289 18.433 27.9844C17.5661 30.901 15.7193 33.5509 12.4896 34.6718C10.4089 35.3938 7.88576 34.5963 7.0981 32.814C6.78859 32.1137 6.79928 31.3162 7.04676 30.539C7.39651 29.4403 8.22291 28.3833 9.19263 27.7447C12.0526 25.861 15.2654 26.1484 18.1455 27.3738ZM17.5022 28.0493C14.9648 27.0405 12.1689 26.8256 9.67083 28.4707C8.86077 29.0043 8.16747 29.8849 7.8753 30.8027C7.69479 31.3697 7.66763 31.9517 7.89343 32.4626C8.51899 33.878 10.5521 34.4238 12.2045 33.8504C15.0322 32.869 16.6766 30.5841 17.5022 28.0493Z" fill="#5A2D00"/>
<path fill-rule="evenodd" clip-rule="evenodd" d="M28.2415 31.9139C30.7125 31.607 32.9141 29.5788 32.8227 27.3779C32.7362 25.2936 30.3319 23.6122 28.1112 23.3338C23.9983 22.8182 20.6788 24.8884 18.2179 27.7702L18.21 27.7703C18.2114 27.772 18.2128 27.7735 18.2139 27.7752C18.2128 27.7769 18.2114 27.7786 18.2101 27.7802L18.218 27.7801C20.7113 30.4988 24.1281 32.425 28.2415 31.9139Z" fill="#FFC440"/>
<path fill-rule="evenodd" clip-rule="evenodd" d="M17.9303 27.4367C20.4804 24.4722 23.9196 22.3702 28.1643 22.9024C29.5918 23.0813 31.0889 23.8033 32.079 24.8329C32.7717 25.5531 33.2174 26.4226 33.2563 27.3599C33.356 29.7612 30.9903 32.0103 28.2944 32.3453C24.0548 32.8722 20.5233 30.9155 17.9423 28.1234C17.892 28.0842 17.8499 28.0337 17.8202 27.9743C17.7898 27.9133 17.7747 27.8474 17.7746 27.7819C17.7727 27.7164 17.7858 27.65 17.8144 27.5883C17.8418 27.5286 17.8818 27.4772 17.9303 27.4367ZM18.799 27.7645C21.1753 30.2359 24.3665 31.9572 28.1871 31.4825C30.4332 31.2034 32.4707 29.3966 32.3875 27.396C32.3572 26.6657 31.992 25.9967 31.4523 25.4356C30.5937 24.5428 29.2938 23.9204 28.0562 23.7652C24.238 23.2864 21.1387 25.1426 18.799 27.7645Z" fill="#5A2D00"/>
<path fill-rule="evenodd" clip-rule="evenodd" d="M23.9122 34.261C25.7788 34.9087 28.057 34.2369 28.7635 32.6382C29.4326 31.1243 28.3107 29.0844 26.8276 28.1077C24.0807 26.2986 20.9919 26.6085 18.2299 27.7971L18.2242 27.7944C18.2245 27.796 18.225 27.7976 18.2253 27.7992C18.2237 27.8 18.2222 27.8007 18.2207 27.8015L18.2265 27.8042C19.0481 30.6136 20.805 33.1827 23.9122 34.261Z" fill="#FFC440"/>
<path fill-rule="evenodd" clip-rule="evenodd" d="M17.8298 27.6119C17.8572 27.5525 17.898 27.4993 17.9506 27.4566C17.9996 27.417 18.0554 27.3892 18.1141 27.3738C20.9942 26.1484 24.207 25.861 27.0669 27.7447C28.0366 28.3833 28.8631 29.4403 29.2127 30.539C29.4602 31.3162 29.4709 32.1137 29.1613 32.814C28.3737 34.5963 25.8506 35.3938 23.7698 34.6718C20.5402 33.5509 18.6935 30.901 17.8266 27.9844C17.8008 27.9289 17.7865 27.8674 17.7861 27.8037C17.7858 27.736 17.8013 27.6706 17.8298 27.6119ZM18.7574 28.0493C19.5829 30.5841 21.2274 32.869 24.0549 33.8504C25.7074 34.4238 27.7406 33.878 28.3661 32.4626C28.5918 31.9517 28.5647 31.3697 28.3842 30.8027C28.0922 29.8849 27.3988 29.0043 26.5887 28.4707C24.0905 26.8256 21.2948 27.0405 18.7572 28.0493" fill="#5A2D00"/>
<path fill-rule="evenodd" clip-rule="evenodd" d="M22.487 34.8333C22.7148 34.7579 22.9609 34.8815 23.0363 35.1094C23.1117 35.3372 22.988 35.5834 22.7602 35.6586C19.7401 36.6582 16.6547 36.6841 13.4999 35.6594C13.2715 35.5853 13.1465 35.3399 13.2205 35.1117C13.2946 34.8835 13.5401 34.7583 13.7683 34.8325C16.7388 35.7973 19.6437 35.7743 22.487 34.8333Z" fill="#5A2D00"/>
<path fill-rule="evenodd" clip-rule="evenodd" d="M21.7194 37.9639C21.9509 37.9011 22.19 38.038 22.2528 38.2695C22.3157 38.5011 22.1788 38.7401 21.9472 38.803C19.448 39.4817 16.9041 39.4944 14.3133 38.7982C14.0815 38.7359 13.944 38.4972 14.0062 38.2655C14.0686 38.0337 14.3072 37.8962 14.5389 37.9585C16.9759 38.6134 19.3686 38.6023 21.7194 37.9639Z" fill="#5A2D00"/>
<path fill-rule="evenodd" clip-rule="evenodd" d="M19.094 41.1148C19.3334 41.0978 19.5415 41.2783 19.5585 41.5177C19.5756 41.757 19.395 41.9651 19.1557 41.9821C18.4451 42.0327 17.7311 42.0296 17.0133 41.9719C16.7741 41.9526 16.5956 41.7429 16.6147 41.5037C16.6341 41.2645 16.8438 41.0859 17.0829 41.1052C17.7566 41.1593 18.427 41.1622 19.094 41.1148Z" fill="#5A2D00"/>
<path fill-rule="evenodd" clip-rule="evenodd" d="M20.7284 31.9949C20.9637 31.9479 21.193 32.1007 21.24 32.3361C21.287 32.5714 21.1341 32.8006 20.8988 32.8476C19.078 33.2113 17.2336 33.2221 15.3646 32.8636C15.129 32.8184 14.9743 32.5904 15.0196 32.3548C15.0648 32.1191 15.2928 31.9645 15.5284 32.0096C17.2845 32.3465 19.0176 32.3368 20.7284 31.9949Z" fill="#5A2D00"/>
<path fill-rule="evenodd" clip-rule="evenodd" d="M17.2471 21.4757C17.3883 21.6699 17.3454 21.942 17.1515 22.0831C16.9574 22.2243 16.6853 22.1814 16.5441 21.9873C15.811 20.98 14.9446 20.0226 13.8751 19.1414C13.6898 18.9889 13.6634 18.7146 13.8159 18.5294C13.9687 18.3442 14.2428 18.3177 14.428 18.4703C15.5575 19.4011 16.4729 20.4118 17.2471 21.4757Z" fill="#5A2D00"/>
<path fill-rule="evenodd" clip-rule="evenodd" d="M13.5304 17C14.1811 17 14.7094 17.5282 14.7094 18.179C14.7094 18.8296 14.1811 19.3579 13.5304 19.3579C12.8799 19.3579 12.3516 18.8296 12.3516 18.179C12.3516 17.5282 12.8799 17 13.5304 17Z" fill="#5A2D00"/>
<path fill-rule="evenodd" clip-rule="evenodd" d="M19.715 21.9873C19.5737 22.1814 19.3016 22.2243 19.1076 22.0831C18.9136 21.942 18.8707 21.6699 19.012 21.4757C19.7861 20.4118 20.7015 19.401 21.8311 18.4703C22.0162 18.3177 22.2905 18.3442 22.443 18.5294C22.5956 18.7146 22.5692 18.9889 22.384 19.1414C21.3145 20.0226 20.4479 20.98 19.715 21.9873Z" fill="#5A2D00"/>
<path fill-rule="evenodd" clip-rule="evenodd" d="M22.7267 17C22.0761 17 21.5479 17.5282 21.5479 18.179C21.5479 18.8296 22.0761 19.3579 22.7267 19.3579C23.3775 19.3579 23.9058 18.8296 23.9058 18.179C23.9058 17.5282 23.3775 17 22.7267 17Z" fill="#5A2D00"/>
<path d="M48.5905 29.2646C49.8975 30.0176 50.551 31.1541 50.551 32.6741C50.551 33.9385 50.1035 34.9756 49.2085 35.7854C48.3135 36.5951 47.2125 37 45.9055 37H39.5765V22.0833H45.458C46.7366 22.0833 47.8091 22.4811 48.6757 23.2766C49.5565 24.058 49.9969 25.0595 49.9969 26.2813C49.9969 27.5172 49.5281 28.5117 48.5905 29.2646ZM45.458 24.8322H42.5173V28.1139H45.458C45.9126 28.1139 46.2891 27.9576 46.5874 27.6451C46.8999 27.3325 47.0562 26.9419 47.0562 26.4731C47.0562 26.0042 46.907 25.6136 46.6087 25.301C46.3104 24.9885 45.9268 24.8322 45.458 24.8322ZM45.9055 34.2511C46.4027 34.2511 46.8147 34.0877 47.1414 33.7609C47.4682 33.42 47.6316 32.9938 47.6316 32.4824C47.6316 31.9851 47.4682 31.5732 47.1414 31.2464C46.8147 30.9055 46.4027 30.735 45.9055 30.735H42.5173V34.2511H45.9055ZM61.1092 22.0833H64.0499V37H61.8124L55.4196 27.8795V37H52.4788V22.0833H54.7163L61.1092 31.1825V22.0833ZM75.831 29.2646C77.138 30.0176 77.7915 31.1541 77.7915 32.6741C77.7915 33.9385 77.344 34.9756 76.449 35.7854C75.554 36.5951 74.453 37 73.146 37H66.817V22.0833H72.6985C73.9771 22.0833 75.0496 22.4811 75.9162 23.2766C76.797 24.058 77.2374 25.0595 77.2374 26.2813C77.2374 27.5172 76.7686 28.5117 75.831 29.2646ZM72.6985 24.8322H69.7578V28.1139H72.6985C73.1531 28.1139 73.5296 27.9576 73.8279 27.6451C74.1404 27.3325 74.2967 26.9419 74.2967 26.4731C74.2967 26.0042 74.1475 25.6136 73.8492 25.301C73.5509 24.9885 73.1673 24.8322 72.6985 24.8322ZM73.146 34.2511C73.6432 34.2511 74.0552 34.0877 74.3819 33.7609C74.7087 33.42 74.8721 32.9938 74.8721 32.4824C74.8721 31.9851 74.7087 31.5732 74.3819 31.2464C74.0552 30.9055 73.6432 30.735 73.146 30.735H69.7578V34.2511H73.146ZM88.2006 22.0833H91.12V37H88.2006V30.8202H82.6601V37H79.7193V22.0833H82.6601V28.0073H88.2006V22.0833ZM95.127 25.0666C94.6724 25.0666 94.2746 24.9032 93.9337 24.5765C93.6069 24.2355 93.4436 23.8378 93.4436 23.3832C93.4436 22.9286 93.6069 22.5308 93.9337 22.1898C94.2746 21.8489 94.6724 21.6784 95.127 21.6784C95.5958 21.6784 95.9936 21.8489 96.3204 22.1898C96.6613 22.5308 96.8318 22.9286 96.8318 23.3832C96.8318 23.8378 96.6613 24.2355 96.3204 24.5765C95.9936 24.9032 95.5958 25.0666 95.127 25.0666ZM93.7632 37V26.3452H96.5121V37H93.7632ZM106.039 26.3452H109.065L105.016 37H101.884L97.8348 26.3452H100.861L103.439 33.8036L106.039 26.3452ZM112.297 32.802C112.666 34.1374 113.668 34.8051 115.302 34.8051C116.353 34.8051 117.149 34.45 117.688 33.7396L119.905 35.0182C118.853 36.5383 117.305 37.2983 115.259 37.2983C113.498 37.2983 112.084 36.7656 111.018 35.7001C109.953 34.6346 109.42 33.2921 109.42 31.6726C109.42 30.0673 109.946 28.7319 110.997 27.6664C112.048 26.5867 113.398 26.0469 115.046 26.0469C116.609 26.0469 117.894 26.5867 118.903 27.6664C119.926 28.7461 120.437 30.0815 120.437 31.6726C120.437 32.0278 120.402 32.4042 120.331 32.802H112.297ZM112.254 30.671H117.688C117.532 29.9465 117.205 29.4067 116.708 29.0515C116.225 28.6964 115.671 28.5188 115.046 28.5188C114.307 28.5188 113.696 28.7106 113.213 29.0941C112.73 29.4635 112.411 29.9891 112.254 30.671Z" fill="#5A2D00"/>
</svg>
